<svg width="32" height="32" viewBox="0 0 32 32" fill="none" xmlns="http://www.w3.org/2000/svg">
<path d="M10.6665 28H21.3332M15.9998 22.6667V28M9.0665 22.6667H22.9332C25.1734 22.6667 26.2935 22.6667 27.1491 22.2307C27.9018 21.8472 28.5137 21.2353 28.8972 20.4826C29.3332 19.627 29.3332 18.5069 29.3332 16.2667V10.4C29.3332 8.15979 29.3332 7.03969 28.8972 6.18404C28.5137 5.43139 27.9018 4.81947 27.1491 4.43597C26.2935 4 25.1734 4 22.9332 4H9.0665C6.82629 4 5.70619 4 4.85054 4.43597C4.09789 4.81947 3.48597 5.43139 3.10248 6.18404C2.6665 7.03969 2.6665 8.15979 2.6665 10.4V16.2667C2.6665 18.5069 2.6665 19.627 3.10248 20.4826C3.48597 21.2353 4.09789 21.8472 4.85054 22.2307C5.70619 22.6667 6.82629 22.6667 9.0665 22.6667Z" stroke="#91FF02" stroke-width="3" stroke-linecap="round" stroke-linejoin="round"/>
</svg>
