<svg width="114" height="48" viewBox="0 0 114 48" fill="none" xmlns="http://www.w3.org/2000/svg">
<path d="M0 35.3964L11.7021 20.0626H1.38627C1.29885 19.6209 1.26138 19.1371 1.26138 18.6007C1.26138 18.0854 1.29885 17.6121 1.38627 17.1809H18.084L18.2963 17.6542L6.50674 33.0195H17.5595C17.6469 33.5033 17.6844 34.0081 17.6844 34.5129C17.6844 34.9967 17.6469 35.4595 17.5595 35.9012H0.212312L0 35.3964Z" fill="#FF4A00"/>
<path d="M33.7702 23.5649C33.7702 22.1241 33.3331 21.1355 32.4714 20.5676C31.6096 20.0102 30.3482 19.7262 28.6997 19.7262C27.6881 19.7262 26.7389 19.7893 25.8647 19.926C24.978 20.0628 24.1287 20.231 23.2795 20.4519C22.73 19.6526 22.4552 18.685 22.4552 17.5702C23.4418 17.3073 24.5159 17.097 25.7023 16.9497C26.8888 16.8025 28.0253 16.7289 29.1243 16.7289C32.0093 16.7289 34.2073 17.2863 35.7185 18.3906C37.2172 19.4949 37.979 21.2722 37.979 23.7017V35.4176C36.9674 35.6069 35.7435 35.8172 34.2947 36.0171C32.846 36.2274 31.3723 36.3221 29.8737 36.3221C28.4624 36.3221 27.176 36.2169 26.0395 35.996C24.9031 35.7752 23.9289 35.4281 23.1296 34.9338C22.3303 34.45 21.7184 33.8295 21.2813 33.0723C20.8441 32.3151 20.6318 31.4001 20.6318 30.3379C20.6318 29.2967 20.8816 28.3712 21.3937 27.5824C21.8932 26.7937 22.5801 26.1311 23.4543 25.6157C24.3161 25.0899 25.3152 24.7008 26.4517 24.4484C27.5757 24.196 28.7621 24.0592 30.011 24.0592C30.9352 24.0592 31.697 24.0803 32.284 24.1118C32.871 24.1434 33.3706 24.196 33.7827 24.238V23.5649H33.7702ZM33.7702 27.1092C33.3331 27.0566 32.7836 27.0145 32.1217 26.9619C31.4597 26.9093 30.8977 26.8883 30.4357 26.8883C28.6372 26.8883 27.2759 27.1723 26.3393 27.7297C25.4026 28.2871 24.928 29.1389 24.928 30.2853C24.928 31.011 25.0904 31.5894 25.4026 31.9996C25.7148 32.4097 26.1145 32.7252 26.5891 32.9461C27.0636 33.167 27.5882 33.3037 28.1752 33.3458C28.7496 33.3983 29.2992 33.4194 29.8237 33.4194C30.4856 33.4194 31.1725 33.3878 31.8844 33.3247C32.5962 33.2616 33.2207 33.1775 33.7702 33.0513V27.1092Z" fill="#FF4A00"/>
<path d="M42.6622 17.1817C42.9495 17.1291 43.2492 17.0976 43.549 17.0765C43.8487 17.0555 44.1609 17.045 44.4856 17.045C44.7729 17.045 45.0726 17.0555 45.3973 17.0765C45.7095 17.0976 46.0218 17.1396 46.309 17.1817C46.334 17.2343 46.3715 17.3815 46.4214 17.6339C46.4589 17.8863 46.5088 18.1598 46.5463 18.4543C46.5838 18.7487 46.6337 19.0222 46.6712 19.2956C46.7087 19.5691 46.7336 19.7373 46.7336 19.811C47.0209 19.4218 47.3706 19.0432 47.7702 18.6751C48.1699 18.307 48.6569 17.981 49.2189 17.6865C49.7809 17.392 50.4179 17.1607 51.1297 16.9924C51.8416 16.8241 52.6284 16.74 53.4902 16.74C54.789 16.74 56.0004 16.9188 57.112 17.2869C58.2235 17.655 59.1726 18.2124 59.9719 18.9801C60.7712 19.7478 61.3832 20.7259 61.8328 21.9038C62.2824 23.0817 62.5072 24.4805 62.5072 26.0896C62.5072 29.3078 61.4706 31.8214 59.4099 33.6303C57.3368 35.4392 54.4143 36.3542 50.6302 36.3542C49.9933 36.3542 49.3438 36.3227 48.6819 36.249C48.02 36.1754 47.433 36.0808 46.946 35.9546V44.5364C46.5963 44.589 46.2341 44.6206 45.8344 44.6416C45.4473 44.6626 45.0851 44.6732 44.7729 44.6732C44.4606 44.6732 44.0985 44.6626 43.7113 44.6416C43.3242 44.6206 42.962 44.5785 42.6498 44.5364V17.1817H42.6622ZM46.9584 32.8415C47.508 33.0098 48.07 33.136 48.6444 33.2096C49.2189 33.2832 49.9683 33.3148 50.9049 33.3148C51.9415 33.3148 52.9032 33.1781 53.7649 32.8941C54.6267 32.6102 55.376 32.179 56.0004 31.6005C56.6249 31.0116 57.112 30.2754 57.4741 29.3919C57.8363 28.5085 58.0112 27.4463 58.0112 26.2368C58.0112 24.2912 57.5865 22.7452 56.7373 21.5988C55.888 20.4525 54.4893 19.8846 52.5535 19.8846C51.8291 19.8846 51.1422 19.9897 50.4678 20.2106C49.8059 20.4315 49.2065 20.7575 48.6944 21.1992C48.1699 21.6409 47.7577 22.1878 47.433 22.8609C47.1083 23.534 46.9584 24.3227 46.9584 25.2482V32.8415Z" fill="#FF4A00"/>
<path d="M67.8524 20.0205H65.0299C64.9675 19.8207 64.93 19.5998 64.905 19.3474C64.8801 19.095 64.8676 18.8426 64.8676 18.6007C64.8676 18.3588 64.8801 18.1064 64.905 17.854C64.93 17.6016 64.98 17.3702 65.0299 17.1809H72.0612V35.9117C71.749 35.9643 71.3868 35.9958 70.9996 36.0169C70.6125 36.0379 70.2503 36.0484 69.9381 36.0484C69.6508 36.0484 69.3136 36.0379 68.914 36.0169C68.5268 35.9958 68.1647 35.9538 67.8524 35.9117V20.0205Z" fill="#FF4A00"/>
<path d="M81.2905 27.4355C81.353 29.4758 81.9774 30.9797 83.1764 31.9262C84.3753 32.8728 86.1487 33.346 88.4842 33.346C90.5323 33.346 92.4931 33.041 94.3415 32.431C94.5788 32.7991 94.7661 33.2408 94.9035 33.7667C95.0533 34.2925 95.1283 34.8079 95.1657 35.3232C94.2166 35.6598 93.1675 35.9227 92.0185 36.091C90.882 36.2592 89.6082 36.3434 88.2219 36.3434C86.1987 36.3434 84.4627 36.1015 83.014 35.6282C81.5653 35.1549 80.3788 34.4819 79.4422 33.6195C78.5055 32.7571 77.8186 31.7369 77.3815 30.5485C76.9444 29.3706 76.7321 28.077 76.7321 26.6572C76.7321 25.269 76.9444 23.9754 77.3565 22.7659C77.7686 21.5564 78.4181 20.5153 79.2798 19.6213C80.1415 18.7379 81.2406 18.0227 82.5519 17.5074C83.8632 16.9816 85.4244 16.7186 87.2103 16.7186C88.7464 16.7186 90.0827 16.9395 91.2442 17.3812C92.4057 17.8229 93.3673 18.4224 94.1541 19.1901C94.9285 19.9579 95.5279 20.8728 95.9276 21.9245C96.3272 22.9868 96.5395 24.1331 96.5395 25.3741C96.5395 25.7107 96.527 26.0788 96.4896 26.4469C96.4646 26.8255 96.4271 27.1515 96.4021 27.4144H81.2905V27.4355ZM92.3058 24.7326C92.3058 24.049 92.1934 23.3969 91.9811 22.7764C91.7687 22.1559 91.444 21.6196 91.0319 21.1568C90.6073 20.6941 90.0827 20.326 89.4333 20.042C88.7839 19.758 88.0096 19.6213 87.1104 19.6213C85.3494 19.6213 84.0006 20.0736 83.0515 20.9675C82.1148 21.872 81.5403 23.1235 81.3405 24.7326H92.3058Z" fill="#FF4A00"/>
<path d="M101.285 17.1809C101.598 17.1283 101.91 17.0968 102.197 17.0757C102.484 17.0547 102.784 17.0442 103.109 17.0442C103.421 17.0442 103.746 17.0547 104.058 17.0757C104.37 17.0968 104.67 17.1388 104.92 17.1809C105.007 17.549 105.095 18.0223 105.182 18.6217C105.269 19.2212 105.307 19.726 105.307 20.1362C105.919 19.3053 106.718 18.5902 107.717 17.9802C108.716 17.3702 109.99 17.0652 111.551 17.0652C111.789 17.0652 112.026 17.0757 112.263 17.0863C112.513 17.0968 112.713 17.1178 112.888 17.1388C112.95 17.3597 112.988 17.5911 113.013 17.833C113.038 18.0749 113.05 18.3273 113.05 18.6007C113.05 18.8952 113.025 19.2002 112.988 19.5157C112.95 19.8312 112.888 20.1362 112.838 20.4307C112.6 20.3781 112.363 20.357 112.126 20.357C111.876 20.357 111.689 20.357 111.539 20.357C110.765 20.357 110.015 20.4517 109.303 20.6305C108.591 20.8093 107.955 21.1353 107.393 21.5981C106.831 22.0608 106.381 22.6918 106.044 23.5016C105.706 24.3009 105.544 25.3421 105.544 26.6041V35.9117C105.232 35.9643 104.87 35.9958 104.483 36.0169C104.095 36.0379 103.733 36.0484 103.421 36.0484C103.109 36.0484 102.747 36.0379 102.359 36.0169C101.972 35.9958 101.598 35.9538 101.248 35.9117V17.1809H101.285Z" fill="#FF4A00"/>
<path d="M76.1449 6.15949H71.9486L74.921 3.65644C74.6837 3.383 74.4214 3.12008 74.1467 2.87819C73.8594 2.63629 73.5597 2.41544 73.2225 2.22613L70.2501 4.72918V1.19546C69.863 1.14288 69.4633 1.11133 69.0512 1.11133H69.0387C68.6266 1.11133 68.2269 1.14288 67.8398 1.19546V4.72918L64.8674 2.22613C64.5427 2.42595 64.2305 2.64681 63.9432 2.87819C63.656 3.12008 63.4062 3.37249 63.1689 3.65644L66.1538 6.15949H61.9575C61.9575 6.15949 61.8576 6.82206 61.8576 7.16913C61.8576 7.51619 61.895 7.85273 61.9575 8.17876H66.1538L63.1814 10.6818C63.6435 11.2287 64.218 11.7125 64.8799 12.1121L67.8523 9.60907V13.1428C68.2394 13.1954 68.6391 13.2269 69.0512 13.2269H69.0637C69.4758 13.2269 69.8755 13.1954 70.2626 13.1428V9.60907L73.235 12.1121C73.5597 11.9123 73.8719 11.6914 74.1592 11.4601C74.4464 11.2182 74.7087 10.9658 74.9335 10.6818L71.9611 8.17876H76.1574C76.2199 7.85273 76.2573 7.51619 76.2573 7.16913V7.15861C76.2448 6.82206 76.2199 6.48552 76.1449 6.15949ZM70.8496 7.17964C70.8496 7.63187 70.7497 8.06307 70.5748 8.46272C70.1003 8.60996 69.5882 8.69409 69.0512 8.69409C68.5142 8.69409 68.0021 8.60996 67.5275 8.46272C67.3527 8.06307 67.2528 7.63187 67.2528 7.17964V7.16913C67.2528 6.71689 67.3527 6.2857 67.5275 5.88605C68.0021 5.73881 68.5142 5.65468 69.0512 5.65468C69.5882 5.65468 70.1003 5.73881 70.5748 5.88605C70.7497 6.2857 70.8496 6.71689 70.8496 7.17964Z" fill="#FF4A00"/>
</svg>
